<svg xmlns="http://www.w3.org/2000/svg" viewBox="0 0 253.46 272.95"><defs><style>.cls-1{fill:#ff7c73;}.cls-2{fill:#ffcecb;}</style></defs><title>logo</title><g id="Layer_2" data-name="Layer 2"><g id="Layer_3" data-name="Layer 3"><path class="cls-1" d="M126.69,98a23.92,23.92,0,0,1-17-7L59.79,41.05A24,24,0,0,1,93.73,7.11l33,33,33-33A24,24,0,0,1,193.67,41l-50,50A23.92,23.92,0,0,1,126.69,98Z"/><path class="cls-2" d="M126.73,273A126.74,126.74,0,0,1,22.49,74.14,24,24,0,0,1,62,101.46a78.73,78.73,0,1,0,129.3-.36,24,24,0,0,1,39.31-27.56A126.74,126.74,0,0,1,126.73,273Z"/></g></g></svg>